# AST/ASF file generated using VICON BodyLanguage
# -----------------------------------------------
:version 1.10
:name VICON
:units
  mass 1.0
  length 0.45
  angle deg
:documentation
   .ast/.asf automatically generated from VICON data using
   VICON BodyBuilder and BodyLanguage model FoxedUp or BRILLIANT.MOD
:root
   order TX TY TZ RX RY RZ
   axis XYZ
   position 0 0 0  
   orientation 0 0 0 
:bonedata
  begin
     id 1 
     name lhipjoint
     direction 0.588788 -0.725889 0.355548 
     length 2.37778 
     axis 0 0 0  XYZ
  end
  begin
     id 2 
     name lfemur
     direction 0.34202 -0.939693 0  
     length 6.86393  
     axis 0 0 20  XYZ
    dof rx ry rz
    limits (-160.0 20.0)
           (-70.0 70.0)
           (-60.0 70.0)
  end
  begin
     id 3 
     name ltibia
     direction 0.34202 -0.939693 0   
     length 7.32851   
     axis 0 0 20   XYZ
    dof rx
    limits (-10.0 170.0)
  end
  begin
     id 4 
     name lfoot
     direction 0.0626533 -0.172138 0.983078   
     length 1.98929   
     axis -90 7.62852e-016 20   XYZ
    dof rx rz
    limits (-45.0 90.0)
           (-70.0 20.0)
  end
  begin
     id 5 
     name ltoes
     direction 1.53647e-011 -4.21734e-011 1   
     length 1.00479   
     axis -90 7.62852e-016 20   XYZ
    dof rx
    limits (-90.0 20.0)
  end
  begin
     id 6 
     name rhipjoint
     direction -0.59141 -0.724168 0.354705   
     length 2.38343  
     axis 0 0 0  XYZ 
  end
  begin
     id 7 
     name rfemur
     direction -0.34202 -0.939693 0   
     length 6.95589   
     axis 0 0 -20   XYZ
    dof rx ry rz
    limits (-160.0 20.0)
           (-70.0 70.0)
           (-70.0 60.0)
  end
  begin
     id 8 
     name rtibia
     direction -0.34202 -0.939693 0   
     length 7.32327   
     axis 0 0 -20   XYZ
    dof rx
    limits (-10.0 170.0)
 end
 begin
     id 9 
     name rfoot
     direction -0.0660461 -0.18146 0.981178   
     length 1.85272  
     axis -90 -7.62852e-016 -20   XYZ
    dof rx rz
    limits (-45.0 90.0)
           (-20.0 70.0)
  end
  begin
     id 10 
     name rtoes
     direction -1.53586e-011 -4.21988e-011 1   
     length 0.93746   
     axis -90 -7.62852e-016 -20   XYZ
    dof rx
    limits (-90.0 20.0)
  end
  begin
     id 11 
     name lowerback
     direction -0.0107982 0.991059 0.13299   
     length 1.98691   
     axis 0 0 0   XYZ
    dof rx ry rz
    limits (-20.0 45.0)
           (-30.0 30.0)
           (-30.0 30.0)
  end
  begin
     id 12 
     name upperback
     direction 0.0076296 0.999916 0.0104576   
     length 1.99501   
     axis 0 0 0   XYZ
    dof rx ry rz
    limits (-20.0 45.0)
           (-30.0 30.0)
           (-30.0 30.0)
  end
  begin
     id 13 
     name thorax
     direction 0.01176 0.998615 -0.0512909   
     length 2.03144   
     axis 0 0 0   XYZ
    dof rx ry rz
    limits (-20.0 45.0)
           (-30.0 30.0)
           (-30.0 30.0)
  end
  begin
     id 14 
     name lowerneck
     direction -0.0171909 0.999644 0.0204011   
     length 1.71818   
     axis 0 0 0   XYZ
    dof rx ry rz
    limits (-20.0 45.0)
           (-30.0 30.0)
           (-30.0 30.0)
  end
  begin
     id 15 
     name upperneck
     direction 0.0250902 0.997482 -0.0663316   
     length 1.66199   
     axis 0 0 0   XYZ
    dof rx ry rz
    limits (-20.0 45.0)
           (-30.0 30.0)
           (-30.0 30.0)
  end
  begin
     id 16
     name head
     direction 0.00881535 0.99956 -0.0283365  
     length 1.81545  
     axis 0 0 0   XYZ
    dof rx ry rz
    limits (-20.0 45.0)
           (-30.0 30.0)
           (-30.0 30.0)
  end
  begin
     id 17 
     name lclavicle
     direction 0.840411 0.486876 -0.238035  
     length 3.30409  
     axis 0 0 0   XYZ
    dof ry rz
    limits (-20.0 10.0)
           (0.0 20.0)
  end
  begin
     id 18 
     name lhumerus
     direction 1 -4.48977e-011 -5.16239e-027   
     length 4.62672   
     axis 180 -30 -90   XYZ
    dof rx ry rz
    limits (-60.0 90.0)
           (-90.0 90.0)
           (-90.0 90.0)
  end
  begin
     id 19
     name lradius
     direction 1 -4.48977e-011 -8.71171e-027   
     length 3.11018   
     axis 180 -30 -90   XYZ
    dof rx
    limits (-10.0 170.0)
  end
  begin
     id 20
     name lwrist
     direction 1 -4.48912e-011 -1.03764e-026   
     length 1.55509   
     axis 9.09556e-015 90 90   XYZ
    dof ry
    limits (-180.0 0.0)
 end
  begin
     id 21 
     name lhand
     direction 1 -4.49072e-011 -2.07528e-026   
     length 0.743834   
     axis 1.3242e-014 90 90   XYZ
    dof rx rz
    limits (-90.0 90.0)
           (-45.0 45.0)
  end
  begin
     id 22 
     name lfingers
     direction 1 -4.48909e-011 -4.15056e-026   
     length 0.599698   
     axis 2.64841e-014 90 90   XYZ
    dof rx
    limits (0.0 90.0)
  end
  begin
     id 23
     name lthumb
     direction 0.707107 -6.35013e-011 0.707107   
     length 0.86105   
     axis -90 45 2.85299e-015   XYZ
    dof rx rz
    limits (-45.0 45.0)
           (-45.0 45.0)
  end
  begin
     id 24 
     name rclavicle
     direction -0.835208 0.500237 -0.228452   
     length 3.2716  
     axis 0 0 0   XYZ 
    dof ry rz
    limits (-10.0 20.0)
           (-20.0 0.0)
  end
  begin
     id 25 
     name rhumerus
     direction -1 -4.48978e-011 -5.1953e-028  
     length 4.55919   
     axis 180 30 90   XYZ
    dof rx ry rz
    limits (-90.0 60.0)
           (-90.0 90.0)
           (-90.0 90.0)
  end
  begin
     id 26 
     name rradius
     direction -1 -4.48961e-011 -5.99546e-027   
     length 3.22748   
     axis 180 30 90   XYZ
    dof rx
    limits (-10.0 170.0)
  end
  begin
     id 27 
     name rwrist
     direction -1 -4.48986e-011 -1.03764e-026   
     length 1.61374   
     axis 9.09556e-015 -90 -90   XYZ
    dof ry
    limits (-180.0 0.0)
  end
  begin
     id 28
     name rhand
     direction -1 -4.4899e-011 -2.07528e-026   
     length 0.700882   
     axis 1.3242e-014 -90 -90   XYZ
    dof rx rz
    limits (-90.0 90.0)
           (-45.0 45.0)
  end
  begin
     id 29
     name rfingers
     direction -1 -4.48991e-011 -4.15056e-026   
     length 0.565069   
     axis 2.64841e-014 -90 -90   XYZ
    dof rx
    limits (0.0 90.0)
  end
  begin
     id 30
     name rthumb
     direction -0.707107 -6.34804e-011 0.707107   
     length 0.811329   
     axis -90 -45 -2.85299e-015   XYZ
    dof rx rz
    limits (-45.0 45.0)
           (-45.0 45.0)
  end
:hierarchy
  begin
    root lhipjoint rhipjoint lowerback
    lhipjoint lfemur
    lfemur ltibia
    ltibia lfoot
    lfoot ltoes
    rhipjoint rfemur
    rfemur rtibia
    rtibia rfoot
    rfoot rtoes
    lowerback upperback
    upperback thorax
    thorax lowerneck lclavicle rclavicle
    lowerneck upperneck
    upperneck head
    lclavicle lhumerus
    lhumerus lradius
    lradius lwrist
    lwrist lhand lthumb
    lhand lfingers
    rclavicle rhumerus
    rhumerus rradius
    rradius rwrist
    rwrist rhand rthumb
    rhand rfingers
  end

#!OML:ASF F:\VICON\USERDATA\INSTALL\SteveWalk\SteveWalk.ASF
:FULLY-SPECIFIED
:DEGREES
206
root -0.545889 16.3148 -3.1774 14.8001 4.51354 1.70652
lowerback -11.9772 -2.34124 -5.45229
upperback -4.37535 -2.48929 0.507471
thorax 2.36909 -1.20876 3.25238
lowerneck -3.76409 -0.864215 0.086784
upperneck 9.57954 -1.33868 1.76977
head 3.78868 -0.583943 0.509452
rclavicle 1.02475e-014 7.45443e-015
rhumerus -60.4943 -30.6532 -54.523
rradius 14.3559
rwrist 18.9695
rhand -16.062 -34.1607
rfingers 7.12502
rthumb 10.1403 -63.8964
lclavicle 1.02475e-014 7.45443e-015
lhumerus -22.8663 -10.4556 85.5246
lradius 35.0964
lwrist 3.24263
lhand -19.1376 -16.8401
lfingers 7.12502
lthumb 7.1723 13.0184
rfemur -47.0761 -4.88523 22.9507
rtibia 33.9761
rfoot -12.5737 -5.40013
rtoes -16.3905
lfemur -13.5061 6.58667 -24.8098
ltibia 27.5941
lfoot -26.1984 -11.5964
ltoes 2.68528
207
root -0.551579 16.3027 -2.97896 14.7245 5.07737 1.71152
lowerback -11.8682 -2.48533 -5.40584
upperback -4.2965 -2.69092 0.543023
thorax 2.41196 -1.31181 3.23563
lowerneck -3.75893 -0.919707 0.119622
upperneck 9.39547 -1.41559 1.80455
head 3.72364 -0.620683 0.511445
rclavicle 3.99767e-014 -4.87022e-015
rhumerus -62.5917 -32.3193 -50.8214
rradius 13.7677
rwrist 22.1348
rhand -15.7681 -34.3272
rfingers 7.12502
rthumb 10.4238 -64.0488
lclavicle 3.99767e-014 -4.87022e-015
lhumerus -22.2118 -11.2254 85.3608
lradius 36.2782
lwrist 3.7213
lhand -19.4859 -16.8726
lfingers 7.12502
lthumb 6.83608 12.997
rfemur -46.8565 -5.01408 22.9524
rtibia 30.6393
rfoot -12.3167 -4.4623
rtoes -16.8704
lfemur -12.0399 6.67959 -24.5138
ltibia 26.4763
lfoot -26.4077 -11.4661
ltoes -0.177968
208
root -0.554022 16.2945 -2.7742 14.7675 5.74995 1.64883
lowerback -11.9527 -2.63479 -5.21654
upperback -4.23868 -2.9051 0.600786
thorax 2.53406 -1.42273 3.15343
lowerneck -3.73997 -0.992333 -0.0509567
upperneck 9.26631 -1.51343 1.96858
head 3.67933 -0.669271 0.591084
rclavicle 2.33673e-014 -3.77691e-015
rhumerus -64.8521 -33.8477 -46.9641
rradius 13.2937
rwrist 25.245
rhand -15.2485 -34.4843
rfingers 7.12502
rthumb 10.9251 -64.1801
lclavicle 2.33673e-014 -3.77691e-015
lhumerus -21.5644 -11.9505 85.2492
lradius 37.3454
lwrist 4.18184
lhand -19.856 -17.2773
lfingers 7.12502
lthumb 6.4788 12.6036
rfemur -46.6946 -5.3181 23.0815
rtibia 27.5557
rfoot -12.3286 -3.28586
rtoes -17.4654
lfemur -10.6543 6.55045 -24.1177
ltibia 25.2639
lfoot -26.471 -11.5554
ltoes -1.7756
209
root -0.554284 16.2884 -2.56822 14.893 6.33637 1.95191
lowerback -12.2147 -2.78996 -5.43526
upperback -4.15683 -3.06416 0.547834
thorax 2.78451 -1.50835 3.18478
lowerneck -3.86269 -1.08773 -0.0740675
upperneck 9.36568 -1.65053 2.05371
head 3.74138 -0.732812 0.617008
rclavicle 1.26981e-014 1.36664e-014
rhumerus -67.8569 -35.7869 -41.8067
rradius 12.6156
rwrist 29.2466
rhand -15.0899 -34.4397
rfingers 7.12502
rthumb 11.0781 -64.1273
lclavicle 1.26981e-014 1.36664e-014
lhumerus -20.9187 -12.9024 85.1795
lradius 38.2581
lwrist 5.02551
lhand -20.2747 -17.9718
lfingers 7.12502
lthumb 6.07461 11.9211
rfemur -46.6283 -5.88637 22.9668
rtibia 24.7475
rfoot -12.9894 -1.95412
rtoes -12.2894
lfemur -9.33501 6.20053 -24.1283
ltibia 24.0577
lfoot -26.1825 -12.0224
ltoes -1.18793
210
root -0.560623 16.2763 -2.36107 14.8976 6.7323 2.1882
lowerback -12.3436 -2.92453 -5.72345
upperback -4.07486 -3.19666 0.54195
thorax 2.96703 -1.57964 3.31247
lowerneck -3.99705 -1.16861 0.0731727
upperneck 9.46828 -1.76448 1.96053
head 3.80229 -0.786256 0.554751
rclavicle -3.80284e-014 -1.08338e-014
rhumerus -71.3605 -37.5787 -35.889
rradius 11.8838
rwrist 33.6867
rhand -15.343 -33.9655
rfingers 7.12502
rthumb 10.8339 -63.666
lclavicle -3.80284e-014 -1.08338e-014
lhumerus -20.3323 -13.546 85.0499
lradius 39.041
lwrist 5.77134
lhand -20.7459 -18.5325
lfingers 7.12502
lthumb 5.61964 11.373
rfemur -46.5899 -6.32524 23.0011
rtibia 22.3862
rfoot -13.6041 -0.690161
rtoes -11.219
lfemur -7.89217 5.85982 -24.0736
ltibia 22.8124
lfoot -25.8547 -12.218
ltoes -1.46804
211
root -0.559695 16.2573 -2.14758 14.9508 7.11074 2.19064
lowerback -12.4523 -3.04698 -5.60157
upperback -4.13895 -3.3688 0.581565
thorax 2.97222 -1.66361 3.2551
lowerneck -3.80217 -1.18477 0.124938
upperneck 9.41459 -1.78048 1.88645
head 3.74367 -0.797061 0.521256
rclavicle -8.63704e-015 -1.60022e-014
rhumerus -74.1364 -38.3199 -31.5897
rradius 11.578
rwrist 36.7261
rhand -15.3594 -34.1114
rfingers 7.12502
rthumb 10.8181 -63.8128
lclavicle -8.63704e-015 -1.60022e-014
lhumerus -20.0128 -13.6847 84.8957
lradius 39.8683
lwrist 6.09537
lhand -21.0093 -18.7206
lfingers 7.12502
lthumb 5.36536 11.1915
rfemur -46.824 -7.15113 23.6487
rtibia 20.4697
rfoot -13.6031 1.00405
rtoes -13.607
lfemur -6.54215 5.52776 -23.8236
ltibia 21.5913
lfoot -25.5942 -12.2215
ltoes -2.69758
212
root -0.551415 16.2404 -1.93442 15.1131 7.62578 2.36169
lowerback -12.6469 -3.19487 -5.46469
upperback -4.16008 -3.56742 0.556006
thorax 3.06635 -1.76367 3.11115
lowerneck -3.92167 -1.20627 0.0328433
upperneck 9.53293 -1.80875 1.91842
head 3.81074 -0.811332 0.546308
rclavicle 1.5148e-014 -1.91082e-014
rhumerus -76.416 -38.8454 -28.0781
rradius 11.4513
rwrist 39.0477
rhand -15.193 -34.4374
rfingers 7.12502
rthumb 10.9786 -64.1303
lclavicle 1.5148e-014 -1.91082e-014
lhumerus -19.5238 -13.796 84.7416
lradius 40.6344
lwrist 6.1482
lhand -20.9938 -18.6268
lfingers 7.12502
lthumb 5.3803 11.2849
rfemur -47.1923 -8.51228 24.4061
rtibia 18.8836
rfoot -13.579 3.32386
rtoes -12.4473
lfemur -5.38884 5.1299 -23.758
ltibia 20.5844
lfoot -25.3454 -12.3415
ltoes -3.68688
213
root -0.551955 16.2202 -1.73223 15.3417 8.07353 2.62327
lowerback -12.825 -3.33183 -5.5978
upperback -4.17447 -3.72029 0.56159
thorax 3.17046 -1.84109 3.15835
lowerneck -3.96808 -1.29946 0.0450439
upperneck 9.51871 -1.92041 1.76732
head 3.8137 -0.872419 0.488826
rclavicle 2.2498e-014 -3.71401e-015
rhumerus -79.4081 -39.5754 -23.2465
rradius 11.1683
rwrist 42.294
rhand -14.992 -34.3638
rfingers 7.12502
rthumb 11.1725 -64.0463
lclavicle 2.2498e-014 -3.71401e-015
lhumerus -18.907 -13.9767 84.6374
lradius 41.0304
lwrist 5.73925
lhand -21.059 -18.854
lfingers 7.12502
lthumb 5.31737 11.0593
rfemur -47.6677 -9.6472 25.012
rtibia 17.6844
rfoot -13.3259 5.58639
rtoes -8.86737
lfemur -4.43411 4.85985 -23.7733
ltibia 19.7781
lfoot -25.2792 -12.1165
ltoes -6.89921
214
root -0.552007 16.1905 -1.52939 15.701 8.37884 2.6714
lowerback -13.1715 -3.39948 -5.49561
upperback -4.32058 -3.80439 0.605132
thorax 3.20955 -1.87982 3.12017
lowerneck -3.7165 -1.36172 0.158465
upperneck 9.43961 -1.98721 1.53591
head 3.73229 -0.913132 0.391026
rclavicle 1.93798e-014 1.74434e-014
rhumerus -82.1275 -39.8892 -19.0288
rradius 10.9972
rwrist 44.9751
rhand -14.8707 -34.6517
rfingers 7.12502
rthumb 11.2895 -64.3278
lclavicle 1.93798e-014 1.74434e-014
lhumerus -18.6031 -14.0344 84.5619
lradius 41.4378
lwrist 5.33894
lhand -21.2092 -19.3373
lfingers 7.12502
lthumb 5.17235 10.5796
rfemur -48.4144 -10.5501 25.8747
rtibia 16.9861
rfoot -12.5801 7.25926
rtoes -14.3023
lfemur -3.67878 4.17308 -23.6736
ltibia 19.1214
lfoot -25.2429 -10.83
ltoes -12.6443
215
root -0.541461 16.1564 -1.31777 15.9577 8.64269 2.71622
lowerback -13.4314 -3.45567 -5.23402
upperback -4.43587 -3.8993 0.635632
thorax 3.2242 -1.92443 2.97992
lowerneck -3.86788 -1.34239 0.0620485
upperneck 9.69046 -1.95956 1.53823
head 3.8516 -0.900289 0.408778
rclavicle 2.82146e-014 1.81888e-014
rhumerus -83.8125 -39.9913 -16.344
rradius 10.9925
rwrist 46.4965
rhand -14.8212 -35.2969
rfingers 7.12502
rthumb 11.3372 -64.9704
lclavicle 2.82146e-014 1.81888e-014
lhumerus -18.3878 -13.9922 84.4873
lradius 42.058
lwrist 5.50265
lhand -21.451 -19.7233
lfingers 7.12502
lthumb 4.93887 10.1991
rfemur -49.1534 -11.8641 27.1485
rtibia 16.6339
rfoot -13.1096 8.28254
rtoes -26.2369
lfemur -2.87414 3.53016 -23.5814
ltibia 18.6975
lfoot -24.8451 -10.3462
ltoes -14.7414
216
root -0.530604 16.1272 -1.10496 16.0357 8.86505 2.86912
lowerback -13.3639 -3.52923 -5.13529
upperback -4.49616 -4.01647 0.682469
thorax 3.13226 -1.97954 2.95883
lowerneck -4.14042 -1.35599 -0.107866
upperneck 9.74836 -1.9677 1.54357
head 3.92818 -0.908611 0.438364
rclavicle -6.06216e-015 -5.06901e-015
rhumerus -86.2301 -40.3036 -12.2421
rradius 10.9028
rwrist 49.2121
rhand -14.6102 -35.6017
rfingers 7.12502
rthumb 11.5406 -65.2639
lclavicle -6.06216e-015 -5.06901e-015
lhumerus -18.036 -13.918 84.4775
lradius 42.5357
lwrist 5.9912
lhand -21.8357 -20.1955
lfingers 7.12502
lthumb 4.56742 9.73527
rfemur -49.4669 -12.717 27.8371
rtibia 16.5537
rfoot -14.4036 9.70658
rtoes -20.5136
lfemur -2.02785 2.85075 -23.5804
ltibia 18.5487
lfoot -24.2889 -10.254
ltoes -14.9864
217
root -0.531709 16.1123 -0.886285 16.0359 8.87254 2.85743
lowerback -13.2972 -3.51777 -5.00918
upperback -4.55905 -4.02537 0.746712
thorax 3.0276 -1.98081 2.9595
lowerneck -4.16473 -1.40297 -0.0624464
upperneck 9.60319 -2.01293 1.34543
head 3.87835 -0.938833 0.362554
rclavicle -1.49686e-014 5.76476e-015
rhumerus -89.1712 -40.4814 -7.40638
rradius 10.7394
rwrist 52.5497
rhand -14.4105 -35.6526
rfingers 7.12502
rthumb 11.7333 -65.304
lclavicle -1.49686e-014 5.76476e-015
lhumerus -17.8601 -13.6767 84.4479
lradius 43.0451
lwrist 6.26996
lhand -22.074 -19.8811
lfingers 7.12502
lthumb 4.33733 10.0545
rfemur -48.9191 -11.4596 26.7879
rtibia 16.6733
rfoot -13.6564 9.18596
rtoes -16.5963
lfemur -1.27407 2.32208 -23.4
ltibia 18.6615
lfoot -23.9281 -9.89118
ltoes -15.8692
